<svg width="69.7988" height="69.5999" viewBox="0 0 69.7988 69.5999" fill="none" xmlns="http://www.w3.org/2000/svg">
  <g id="Socmed/Instagram">
    <g id="Ellipse 178" filter="url(#filter2_d_16_16)">
      <ellipse cx="34.8994" cy="22.1837" rx="16.8994" ry="16.7999" fill="#F53838"/>
    </g>
    <path id="Vector_3" d="M40.112 22C40.112 23.409 39.553 24.7602 38.557 25.7565C37.56 26.7528 36.209 27.3125 34.8 27.3125C33.391 27.3125 32.04 26.7528 31.043 25.7565C30.047 24.7602 29.487 23.409 29.487 22C29.487 21.6972 29.519 21.4015 29.574 21.1146H27.717V28.1926C27.717 28.6849 28.115 29.0833 28.607 29.0833H40.994C41.23 29.0829 41.456 28.9888 41.623 28.8218C41.79 28.6548 41.883 28.4285 41.883 28.1926V21.1146H40.026C40.081 21.4015 40.112 21.6972 40.112 22ZM34.8 25.5417C35.265 25.5415 35.726 25.4498 36.156 25.2717C36.585 25.0935 36.976 24.8325 37.305 24.5035C37.634 24.1744 37.894 23.7838 38.072 23.354C38.25 22.9241 38.342 22.4634 38.342 21.9982C38.342 21.533 38.25 21.0724 38.072 20.6426C37.894 20.2129 37.632 19.8224 37.303 19.4935C36.974 19.1647 36.584 18.9038 36.154 18.7259C35.724 18.548 35.263 18.4564 34.798 18.4566C33.859 18.4568 32.958 18.8303 32.294 19.4948C31.629 20.1593 31.256 21.0605 31.257 22C31.257 22.9395 31.63 23.8405 32.295 24.5047C32.959 25.1689 33.86 25.5419 34.8 25.5417ZM39.05 18.2812H41.173C41.314 18.2812 41.45 18.2253 41.55 18.1258C41.649 18.0262 41.706 17.8911 41.706 17.75V15.6268C41.706 15.4854 41.65 15.3498 41.55 15.2499C41.45 15.1499 41.315 15.0937 41.173 15.0937H39.05C38.909 15.0937 38.773 15.1499 38.673 15.2499C38.573 15.3498 38.517 15.4854 38.517 15.6268V17.75C38.519 18.0422 38.758 18.2812 39.05 18.2812ZM34.8 5C30.291 5 25.967 6.79107 22.779 9.97918C19.591 13.1673 17.8 17.4913 17.8 22C17.8 26.5087 19.591 30.8327 22.779 34.0208C25.967 37.2089 30.291 39 34.8 39C37.032 39 39.243 38.5603 41.306 37.706C43.368 36.8516 45.242 35.5994 46.821 34.0208C48.399 32.4422 49.652 30.5682 50.506 28.5056C51.36 26.4431 51.8 24.2325 51.8 22C51.8 19.7675 51.36 17.5569 50.506 15.4944C49.652 13.4318 48.399 11.5578 46.821 9.97918C45.242 8.40059 43.368 7.14838 41.306 6.29405C39.243 5.43972 37.032 5 34.8 5ZM43.654 28.8868C43.654 29.9688 42.769 30.8542 41.687 30.8542H27.913C26.831 30.8542 25.946 29.9688 25.946 28.8868V15.1132C25.946 14.0312 26.831 13.1458 27.913 13.1458H41.687C42.769 13.1458 43.654 14.0312 43.654 15.1132V28.8868Z" fill="white"/>
  </g>
  <defs>
    <filter id="filter2_d_16_16" x="0" y="0.383789" width="69.7988" height="69.5999" filterUnits="userSpaceOnUse" color-interpolation-filters="sRGB">
      <feFlood flood-opacity="0" result="BackgroundImageFix"/>
      <feColorMatrix in="SourceAlpha" type="matrix" values="0 0 0 0 0 0 0 0 0 0 0 0 0 0 0 0 0 0 127 0" result="hardAlpha"/>
      <feOffset dy="13"/>
      <feGaussianBlur stdDeviation="9"/>
      <feColorMatrix type="matrix" values="0 0 0 0 0.0658854 0 0 0 0 0.0730469 0 0 0 0 0.1375 0 0 0 0.08 0"/>
      <feBlend mode="normal" in2="BackgroundImageFix" result="effect1_dropShadow_16_16"/>
      <feBlend mode="normal" in="SourceGraphic" in2="effect1_dropShadow_16_16" result="shape"/>
    </filter>
  </defs>
</svg>