<svg width="69.2093" height="69.5999" viewBox="0 0 69.2093 69.5999" fill="none" xmlns="http://www.w3.org/2000/svg">
  <g id="Socmed/Twitter">
    <g id="Ellipse 177" filter="url(#filter1_d_16_16)">
      <ellipse cx="34.6046" cy="22.1837" rx="16.6046" ry="16.7999" fill="#F53838"/>
    </g>
    <path id="Vector_2" d="M34.4 5C25.011 5 17.4 12.611 17.4 22C17.4 31.389 25.011 39 34.4 39C43.789 39 51.4 31.389 51.4 22C51.4 12.611 43.789 5 34.4 5ZM41.3151 18.9258C41.3222 19.071 41.324 19.2163 41.324 19.3579C41.324 23.785 37.9576 28.8868 31.7986 28.8868C29.9787 28.8898 28.1967 28.3671 26.6668 27.3816C26.9271 27.4134 27.1945 27.4258 27.4654 27.4258C29.0344 27.4258 30.4776 26.8928 31.6233 25.9932C30.9251 25.9795 30.2486 25.7483 29.688 25.3319C29.1274 24.9154 28.7108 24.3344 28.496 23.6699C28.9975 23.7652 29.514 23.7453 30.0066 23.6115C29.2487 23.4582 28.5672 23.0476 28.0776 22.4492C27.588 21.8508 27.3204 21.1015 27.3202 20.3283V20.2876C27.7718 20.5373 28.2889 20.6896 28.8378 20.7073C28.1274 20.2344 27.6244 19.5079 27.4318 18.6764C27.2393 17.8449 27.3717 16.9713 27.8019 16.2342C28.6429 17.2683 29.6918 18.1143 30.8806 18.7174C32.0694 19.3205 33.3715 19.6672 34.7028 19.7351C34.5336 19.0167 34.6064 18.2625 34.91 17.5897C35.2136 16.917 35.731 16.3634 36.3817 16.0151C37.0324 15.6667 37.7799 15.5431 38.5081 15.6634C39.2363 15.7837 39.9044 16.1412 40.4084 16.6804C41.1578 16.5322 41.8764 16.2573 42.5334 15.8676C42.2837 16.6435 41.7608 17.3023 41.0619 17.7217C41.7257 17.6417 42.3738 17.4633 42.985 17.1922C42.5361 17.8649 41.9706 18.452 41.3151 18.9258Z" fill="white"/>
  </g>
  <defs>
    <filter id="filter1_d_16_16" x="0" y="0.383789" width="69.2093" height="69.5999" filterUnits="userSpaceOnUse" color-interpolation-filters="sRGB">
      <feFlood flood-opacity="0" result="BackgroundImageFix"/>
      <feColorMatrix in="SourceAlpha" type="matrix" values="0 0 0 0 0 0 0 0 0 0 0 0 0 0 0 0 0 0 127 0" result="hardAlpha"/>
      <feOffset dy="13"/>
      <feGaussianBlur stdDeviation="9"/>
      <feColorMatrix type="matrix" values="0 0 0 0 0.0658854 0 0 0 0 0.0730469 0 0 0 0 0.1375 0 0 0 0.08 0"/>
      <feBlend mode="normal" in2="BackgroundImageFix" result="effect1_dropShadow_16_16"/>
      <feBlend mode="normal" in="SourceGraphic" in2="effect1_dropShadow_16_16" result="shape"/>
    </filter>
  </defs>
</svg>